<svg id="instagram"
  xmlns="http://www.w3.org/2000/svg" viewBox="0 0 15.96 15.92">
  <path d="M167.42,17.6H155.28a1.89,1.89,0,0,0-1.91,1.87V31.64a1.89,1.89,0,0,0,1.91,1.87h12.14a1.89,1.89,0,0,0,1.91-1.87V19.47A1.92,1.92,0,0,0,167.42,17.6Zm-2.61,2.48a0.48,0.48,0,0,1,.48-0.48h1.48a0.48,0.48,0,0,1,.48.48v1.48a0.48,0.48,0,0,1-.48.48h-1.48a0.48,0.48,0,0,1-.48-0.48V20.08Zm-3.48,2.44a3,3,0,1,1,0,6.09A3,3,0,0,1,161.33,22.51Zm6.48,9a0.48,0.48,0,0,1-.48.48h-12a0.48,0.48,0,0,1-.48-0.48V24.08h2a3.13,3.13,0,0,0-.35,1.52,4.87,4.87,0,0,0,9.74,0,2.43,2.43,0,0,0-.39-1.52h2v7.48h-0.09Z" transform="translate(-153.37 -17.6)"></path>
</svg>
